<svg width="469" height="159" viewBox="0 0 469 159" fill="none" xmlns="http://www.w3.org/2000/svg">
<g clip-path="url(#clip0_375_1919)">
<path d="M420.733 16.0853V20.3846H464.693V154.701H6.68282V20.3846H197.001V16.0853H2.37598V159H469V16.0853H420.733Z" fill="white"/>
<path d="M84.9484 57.5958L73.513 55.5944L62.0776 57.5958L39.6523 61.5245V63.1552C39.6523 64.6378 39.6523 66.1203 39.6523 67.5287C39.6523 68.5664 39.6523 69.6042 39.6523 70.642C39.7266 73.4587 39.8751 76.1273 40.0236 78.5734C40.0979 79.7594 40.1721 80.9454 40.3206 82.1315C40.5434 84.5035 40.8404 86.7273 41.1375 88.8028C41.4345 90.7301 41.8058 92.5091 42.177 94.214C42.6226 96.0671 43.0681 97.8461 43.5879 99.4028C44.479 102.145 45.5186 104.517 46.7809 106.667C47.5977 108.15 48.563 109.484 49.5284 110.67C54.4293 116.6 61.038 119.713 69.2804 123.494C70.32 124.013 71.4339 124.457 72.5477 124.976L73.3645 125.347L74.1813 124.976C75.2952 124.457 76.409 123.938 77.4486 123.494C85.691 119.713 92.2997 116.6 97.2006 110.67C98.166 109.484 99.1313 108.15 99.9481 106.667C101.136 104.592 102.176 102.22 103.141 99.4028C103.661 97.772 104.106 96.0671 104.552 94.214C104.923 92.5091 105.295 90.7301 105.592 88.8028C105.889 86.7273 106.186 84.5035 106.408 82.1315C106.483 81.0196 106.631 79.8336 106.705 78.5734C106.854 76.0531 107.002 73.4587 107.077 70.642C107.077 69.6042 107.077 68.5664 107.077 67.5287C107.077 66.1203 107.077 64.6378 107.077 63.1552V61.5245L84.6514 57.5958H84.9484ZM46.4096 94.9552C46.7066 96.1413 47.0037 97.179 47.375 98.2168C47.0037 97.179 46.7066 96.0671 46.4096 94.9552ZM75.9635 119.862C75.1466 120.232 74.3298 120.603 73.513 120.973C72.6962 120.603 71.8794 120.232 71.0626 119.862C64.5281 116.822 59.2559 114.376 55.0976 110.67H91.9285C87.7701 114.45 82.498 116.896 75.9635 119.862ZM95.4927 106.667H51.5333C50.0482 104.666 48.8601 102.294 47.8205 99.4028H99.2055C98.166 102.22 96.9036 104.592 95.4927 106.667ZM99.6511 98.2168C100.022 97.179 100.319 96.0671 100.616 94.9552C100.319 96.1413 100.022 97.179 99.6511 98.2168ZM100.765 94.214H46.2611C45.8898 92.5832 45.5186 90.8042 45.2215 88.8028C45.073 87.9874 44.9988 87.0979 44.8503 86.1343C44.9988 87.0238 45.073 87.9133 45.2215 88.8028H101.804C101.804 88.8028 101.879 88.2839 101.953 88.0615C101.953 88.2839 101.953 88.5804 101.804 88.8028C101.507 90.7301 101.136 92.5091 100.765 94.214ZM102.918 78.6475C102.844 79.9077 102.77 81.0196 102.621 82.2056C102.621 82.3538 102.621 82.5021 102.621 82.5762C102.621 82.428 102.621 82.2797 102.621 82.2056H44.4047C44.3305 81.0937 44.182 79.9077 44.1077 78.6475C43.9592 76.7944 43.8849 74.8671 43.8107 72.7916C43.8107 74.8671 43.9592 76.7944 44.1077 78.6475H102.918C103.067 76.7944 103.141 74.8671 103.215 72.7916C103.215 74.8671 103.067 76.7944 102.918 78.6475ZM103.29 70.642H43.7364C43.7364 69.6042 43.7364 68.5664 43.7364 67.5287H103.364C103.364 68.5664 103.364 69.6042 103.364 70.642H103.29Z" fill="white"/>
<path d="M132.621 107.26C128.463 107.26 125.047 106.371 122.299 104.517C119.552 102.664 117.918 99.8476 117.25 96.1413L123.562 94.6587C123.933 96.4378 124.527 97.9203 125.344 98.958C126.161 99.9958 127.2 100.737 128.463 101.182C129.725 101.627 131.136 101.849 132.547 101.849C134.7 101.849 136.334 101.404 137.522 100.589C138.71 99.7734 139.304 98.6615 139.304 97.3273C139.304 95.993 138.784 95.0294 137.67 94.4364C136.557 93.8434 134.923 93.3245 132.769 92.9538L130.542 92.5832C128.314 92.2126 126.309 91.6196 124.527 90.8783C122.745 90.1371 121.26 89.0993 120.22 87.765C119.181 86.4308 118.661 84.7259 118.661 82.6503C118.661 79.5371 119.775 77.165 122.077 75.5343C124.379 73.8294 127.423 72.9399 131.21 72.9399C134.997 72.9399 137.893 73.7552 140.195 75.4601C142.571 77.0909 144.131 79.3147 144.799 82.1315L138.487 83.9105C138.116 81.9091 137.225 80.5748 135.962 79.7594C134.7 78.9441 133.066 78.4993 131.21 78.4993C129.354 78.4993 127.943 78.8699 126.829 79.5371C125.789 80.2042 125.27 81.1678 125.27 82.3538C125.27 83.6881 125.789 84.6517 126.755 85.2448C127.794 85.8378 129.205 86.3566 130.987 86.6531L133.289 87.0238C135.591 87.3944 137.745 87.9874 139.675 88.6545C141.606 89.3958 143.165 90.3594 144.205 91.6937C145.319 93.028 145.913 94.807 145.913 96.9566C145.913 100.218 144.725 102.738 142.274 104.592C139.824 106.445 136.557 107.334 132.472 107.334L132.621 107.26ZM150.665 106.371V60.1161H157.497V78.4252H158.536C158.982 77.6098 159.576 76.7944 160.393 75.979C161.209 75.1636 162.323 74.5706 163.66 74.0517C164.997 73.5329 166.779 73.2364 168.784 73.2364C171.234 73.2364 173.462 73.7552 175.318 74.8671C177.249 75.979 178.808 77.5357 179.848 79.5371C180.962 81.5385 181.481 83.9105 181.481 86.7273V106.297H174.65V87.2462C174.65 84.4294 173.981 82.3538 172.571 81.0196C171.16 79.6853 169.229 78.944 166.779 78.944C163.957 78.944 161.729 79.9077 159.947 81.6867C158.239 83.5399 157.422 86.2084 157.422 89.7664V106.222H150.591L150.665 106.371ZM199.971 106.964C197.521 106.964 195.293 106.445 193.362 105.333C191.432 104.221 189.872 102.664 188.833 100.663C187.793 98.6615 187.199 96.2154 187.199 93.3986V73.8294H194.031V92.9538C194.031 95.7706 194.699 97.8462 196.11 99.2545C197.521 100.589 199.451 101.256 201.976 101.256C204.723 101.256 206.951 100.292 208.659 98.5133C210.367 96.586 211.258 93.9175 211.258 90.3594V73.9035H218.089V106.519H211.406V101.627H210.367C209.773 102.961 208.659 104.221 207.1 105.407C205.54 106.519 203.164 107.112 200.12 107.112L199.971 106.964ZM236.95 106.371C234.946 106.371 233.386 105.778 232.198 104.592C231.084 103.406 230.49 101.849 230.49 99.8476V79.5371H221.505V73.7552H230.49V63.007H237.322V73.7552H244.97V79.5371H237.322V98.6615C237.322 99.9958 237.916 100.663 239.178 100.663H246.01V106.445H237.025L236.95 106.371ZM259.895 106.371C258.188 106.371 256.851 105.778 255.886 104.592C254.846 103.406 254.401 101.849 254.401 99.8476V79.5371H248.609V73.7552H254.401V63.007H260.193V73.7552H268.435V79.5371H260.193V98.6615C260.193 99.9958 260.712 100.663 261.826 100.663H267.544V106.445H259.97L259.895 106.371ZM288.038 107.26C284.771 107.26 281.875 106.593 279.351 105.185C276.9 103.776 274.969 101.849 273.559 99.3287C272.222 96.8084 271.479 93.8434 271.479 90.5077V89.6923C271.479 86.2825 272.148 83.3175 273.559 80.7972C274.895 78.2769 276.826 76.2755 279.276 74.9413C281.727 73.5329 284.548 72.7916 287.816 72.7916C291.083 72.7916 293.682 73.4587 295.984 74.9413C298.36 76.2755 300.216 78.2028 301.553 80.7231C302.89 83.1692 303.558 86.0601 303.558 89.3958V91.9902H278.534C278.608 94.8811 279.573 97.179 281.355 98.8839C283.212 100.589 285.514 101.404 288.187 101.404C290.712 101.404 292.642 100.811 293.905 99.6993C295.241 98.5874 296.207 97.2531 296.949 95.6965L302.593 98.5874C301.999 99.8476 301.107 101.108 299.919 102.516C298.806 103.85 297.246 105.036 295.39 105.926C293.459 106.815 291.083 107.334 288.113 107.334L288.038 107.26ZM278.534 86.7273H296.578C296.429 84.2811 295.538 82.3538 293.905 80.9455C292.345 79.5371 290.266 78.7958 287.667 78.7958C285.068 78.7958 282.989 79.4629 281.43 80.9455C279.87 82.2797 278.905 84.207 278.534 86.7273ZM308.385 106.371V73.7552H315.068V77.6098H316.107C316.627 76.2755 317.444 75.2378 318.632 74.6447C319.82 73.9776 321.305 73.6811 323.013 73.6811H326.874V79.8336H322.716C320.488 79.8336 318.706 80.4266 317.295 81.6867C315.884 82.8727 315.216 84.7259 315.216 87.2462V106.445H308.385V106.371ZM339.646 106.371L352.864 60.1161H365.413L378.556 106.371H371.205L368.161 95.4741H350.042L346.998 106.371H339.572H339.646ZM351.898 88.8028H366.453L359.695 64.4895H358.656L351.898 88.8028ZM381.527 106.371V60.1161H399.868C402.689 60.1161 405.214 60.7091 407.368 61.821C409.595 62.9329 411.377 64.4895 412.566 66.565C413.828 68.5664 414.496 71.0126 414.496 73.9035V74.793C414.496 77.6839 413.828 80.1301 412.491 82.2056C411.229 84.2811 409.447 85.8378 407.293 86.9496C405.066 88.0615 402.615 88.5804 399.868 88.5804H388.655V106.371H381.527ZM388.655 82.0573H399.125C401.65 82.0573 403.655 81.3902 405.14 80.0559C406.625 78.7217 407.368 76.9427 407.368 74.6447V73.9776C407.368 71.6056 406.625 69.8266 405.14 68.4923C403.655 67.158 401.65 66.4909 399.125 66.4909H388.655V82.0573ZM417.986 106.371V60.1161H425.115V106.371H417.986Z" fill="white"/>
<path d="M212.668 33.6531V7.85734H215.564V10.8965H216.084C216.529 10.007 217.346 9.11748 218.386 8.45035C219.425 7.70909 220.91 7.33846 222.841 7.33846C224.4 7.33846 225.886 7.70909 227.148 8.45035C228.485 9.19161 229.524 10.3035 230.267 11.7119C231.083 13.1203 231.455 14.8252 231.455 16.7524V17.2713C231.455 19.1986 231.083 20.9035 230.267 22.3119C229.524 23.7203 228.485 24.8322 227.148 25.5734C225.811 26.3147 224.4 26.6853 222.767 26.6853C221.504 26.6853 220.391 26.5371 219.5 26.1664C218.608 25.7958 217.866 25.4252 217.346 24.9063C216.826 24.3874 216.381 23.8685 216.084 23.2755H215.564V33.6531H212.594H212.668ZM222.024 24.0909C223.955 24.0909 225.44 23.4979 226.628 22.3119C227.816 21.1259 228.41 19.421 228.41 17.2713V16.9007C228.41 14.751 227.816 13.0462 226.628 11.8601C225.44 10.6741 223.881 10.007 222.024 10.007C220.168 10.007 218.608 10.6 217.42 11.8601C216.232 13.0462 215.638 14.751 215.638 16.9007V17.2713C215.638 19.421 216.232 21.1259 217.42 22.3119C218.608 23.4979 220.168 24.0909 222.024 24.0909Z" fill="white"/>
<path d="M243.41 26.6853C241.554 26.6853 239.92 26.3147 238.509 25.4993C237.098 24.758 235.984 23.6462 235.242 22.2378C234.425 20.8294 234.054 19.1986 234.054 17.2713V16.7524C234.054 14.8993 234.425 13.1944 235.242 11.786C236.059 10.3776 237.098 9.26573 238.509 8.52448C239.92 7.78322 241.554 7.33846 243.41 7.33846C245.266 7.33846 246.9 7.70909 248.311 8.52448C249.722 9.26573 250.836 10.3776 251.578 11.786C252.395 13.1944 252.766 14.8993 252.766 16.7524V17.2713C252.766 19.1986 252.395 20.8294 251.578 22.2378C250.761 23.6462 249.722 24.758 248.311 25.4993C246.9 26.2406 245.266 26.6853 243.41 26.6853ZM243.41 24.0168C245.341 24.0168 246.9 23.4238 248.088 22.1636C249.276 20.9035 249.796 19.2727 249.796 17.1972V16.8266C249.796 14.751 249.202 13.0462 248.088 11.8601C246.9 10.6 245.341 10.007 243.41 10.007C241.479 10.007 239.92 10.6 238.732 11.8601C237.544 13.1203 236.95 14.751 236.95 16.8266V17.1972C236.95 19.2727 237.544 20.9776 238.732 22.1636C239.92 23.4238 241.479 24.0168 243.41 24.0168Z" fill="white"/>
<path d="M258.781 26.1664L255.143 7.85734H258.113L261.157 24.165H261.677L265.687 7.85734H270.588L274.598 24.165H275.117L278.162 7.85734H281.132L277.494 26.1664H272.444L268.434 9.85874H267.915L263.905 26.1664H258.855H258.781Z" fill="white"/>
<path d="M292.717 26.6853C290.86 26.6853 289.227 26.3147 287.816 25.4993C286.405 24.6839 285.291 23.6462 284.548 22.1636C283.806 20.7552 283.36 19.1245 283.36 17.1972V16.7524C283.36 14.8252 283.732 13.1944 284.548 11.786C285.291 10.3776 286.405 9.26573 287.741 8.45035C289.152 7.63496 290.712 7.26434 292.494 7.26434C294.276 7.26434 295.761 7.63496 297.023 8.37622C298.36 9.11748 299.4 10.1552 300.142 11.5636C300.885 12.8979 301.256 14.5287 301.256 16.3818V17.7161H286.331C286.331 19.7175 287.073 21.2 288.261 22.3119C289.449 23.4238 290.934 23.9427 292.791 23.9427C294.35 23.9427 295.538 23.572 296.429 22.8308C297.246 22.0895 297.915 21.2741 298.36 20.2364L300.885 21.4965C300.513 22.2378 299.994 23.0531 299.325 23.7944C298.657 24.5357 297.84 25.2028 296.726 25.7217C295.687 26.2406 294.35 26.5371 292.642 26.5371L292.717 26.6853ZM286.405 15.3441H298.286C298.212 13.6392 297.617 12.3049 296.504 11.4154C295.464 10.4517 294.127 10.007 292.42 10.007C290.712 10.007 289.375 10.4517 288.261 11.4154C287.222 12.379 286.553 13.7133 286.256 15.3441H286.405Z" fill="white"/>
<path d="M304.598 26.1664V7.85734H307.494V10.0811H308.013C308.31 9.26573 308.83 8.67273 309.499 8.3021C310.167 7.93147 311.058 7.70909 312.172 7.70909H314.325V10.3776H311.949C310.612 10.3776 309.573 10.7483 308.756 11.4895C307.939 12.2308 307.568 13.3427 307.568 14.8993V26.0182H304.598V26.1664Z" fill="white"/>
<path d="M325.24 26.6853C323.384 26.6853 321.75 26.3147 320.339 25.4993C318.928 24.6839 317.814 23.6462 317.072 22.1636C316.329 20.7552 315.884 19.1245 315.884 17.1972V16.7524C315.884 14.8252 316.255 13.1944 317.072 11.786C317.814 10.3776 318.928 9.26573 320.265 8.45035C321.676 7.63496 323.235 7.26434 325.017 7.26434C326.799 7.26434 328.285 7.63496 329.547 8.37622C330.883 9.11748 331.923 10.1552 332.666 11.5636C333.408 12.8979 333.779 14.5287 333.779 16.3818V17.7161H318.854C318.854 19.7175 319.597 21.2 320.785 22.3119C321.973 23.4238 323.458 23.9427 325.314 23.9427C326.874 23.9427 328.062 23.572 328.953 22.8308C329.77 22.0895 330.438 21.2741 330.883 20.2364L333.408 21.4965C333.037 22.2378 332.517 23.0531 331.849 23.7944C331.18 24.5357 330.364 25.2028 329.25 25.7217C328.21 26.2406 326.874 26.5371 325.166 26.5371L325.24 26.6853ZM318.928 15.3441H330.809C330.735 13.6392 330.141 12.3049 329.027 11.4154C327.987 10.4517 326.651 10.007 324.943 10.007C323.235 10.007 321.899 10.4517 320.785 11.4154C319.745 12.379 319.077 13.7133 318.78 15.3441H318.928Z" fill="white"/>
<path d="M344.918 26.6853C343.359 26.6853 341.874 26.3147 340.537 25.5734C339.201 24.8322 338.161 23.7203 337.419 22.3119C336.676 20.9035 336.23 19.1986 336.23 17.2713V16.7524C336.23 14.8252 336.602 13.1203 337.419 11.7119C338.161 10.3035 339.201 9.19161 340.537 8.45035C341.874 7.70909 343.285 7.33846 344.918 7.33846C346.181 7.33846 347.295 7.48671 348.186 7.85734C349.077 8.22797 349.819 8.5986 350.339 9.11748C350.859 9.63636 351.304 10.1552 351.601 10.7483H352.121V0H355.091V26.1664H352.195V23.1273H351.676C351.156 24.0168 350.413 24.9063 349.374 25.5734C348.334 26.3147 346.849 26.6853 344.993 26.6853H344.918ZM345.661 24.0909C347.517 24.0909 349.077 23.4979 350.265 22.3119C351.453 21.1259 352.047 19.421 352.047 17.2713V16.9007C352.047 14.751 351.453 13.0462 350.265 11.8601C349.077 10.6741 347.517 10.007 345.661 10.007C343.805 10.007 342.245 10.6 341.057 11.8601C339.869 13.1203 339.201 14.751 339.201 16.9007V17.2713C339.201 19.421 339.795 21.1259 341.057 22.3119C342.245 23.4979 343.805 24.0909 345.661 24.0909Z" fill="white"/>
<path d="M377.294 26.6853C375.364 26.6853 373.953 26.3147 372.839 25.5734C371.799 24.8322 370.982 24.0168 370.537 23.1273H370.017V26.1664H367.121V0H370.091V10.7483H370.611C370.908 10.1552 371.354 9.63636 371.873 9.11748C372.393 8.5986 373.136 8.15385 374.027 7.85734C374.918 7.48671 376.032 7.33846 377.294 7.33846C378.928 7.33846 380.339 7.70909 381.675 8.45035C383.012 9.19161 384.051 10.3035 384.794 11.7119C385.537 13.1203 385.982 14.8252 385.982 16.7524V17.2713C385.982 19.1986 385.611 20.9035 384.794 22.3119C383.977 23.7203 382.938 24.8322 381.675 25.5734C380.339 26.3147 378.928 26.6853 377.368 26.6853H377.294ZM376.477 24.0909C378.408 24.0909 379.893 23.4979 381.081 22.3119C382.269 21.1259 382.863 19.421 382.863 17.2713V16.9007C382.863 14.751 382.269 13.0462 381.081 11.8601C379.893 10.6741 378.334 10.007 376.477 10.007C374.621 10.007 373.062 10.6 371.873 11.8601C370.685 13.0462 370.091 14.751 370.091 16.9007V17.2713C370.091 19.421 370.685 21.1259 371.873 22.3119C373.062 23.4979 374.621 24.0909 376.477 24.0909Z" fill="white"/>
<path d="M391.551 33.6531V31.0587H402.021C402.764 31.0587 403.135 30.6881 403.135 29.9469V23.2755H402.615C402.392 23.7944 402.021 24.3133 401.501 24.8322C400.981 25.351 400.313 25.7217 399.496 26.0923C398.68 26.3888 397.64 26.5371 396.378 26.5371C395.041 26.5371 393.853 26.2406 392.739 25.7217C391.625 25.1287 390.734 24.3133 390.14 23.2014C389.472 22.0895 389.175 20.6811 389.175 19.0503V7.93147H392.145V18.828C392.145 20.607 392.591 21.9413 393.482 22.7566C394.373 23.572 395.635 24.0168 397.194 24.0168C398.977 24.0168 400.387 23.4238 401.501 22.3119C402.615 21.1259 403.209 19.421 403.209 17.1972V8.00559H406.179V30.5399C406.179 31.5035 405.882 32.3189 405.363 32.9119C404.769 33.5049 403.952 33.8014 402.912 33.8014H391.7L391.551 33.6531Z" fill="white"/>
</g>
<defs>
<clipPath id="clip0_375_1919">
<rect width="469" height="159" fill="white"/>
</clipPath>
</defs>
</svg>
